<?xml version="1.0" encoding="UTF-8" standalone="no"?>
<!DOCTYPE svg PUBLIC "-//W3C//DTD SVG 1.1//EN"
 "http://www.w3.org/Graphics/SVG/1.1/DTD/svg11.dtd">
<!-- Generated by graphviz version 5.0.0 (20220707.1540)
 -->
<!-- Title: dependencies Pages: 1 -->
<svg width="692pt" height="247pt"
 viewBox="0.00 0.00 692.00 246.80" xmlns="http://www.w3.org/2000/svg" xmlns:xlink="http://www.w3.org/1999/xlink">
<g id="graph0" class="graph" transform="scale(1 1) rotate(0) translate(4 242.8)">
<title>dependencies</title>
<polygon fill="white" stroke="transparent" points="-4,4 -4,-242.8 688,-242.8 688,4 -4,4"/>
<text text-anchor="middle" x="342" y="-8.2" font-family="sans-serif" font-size="14.00">dependencies</text>
<g id="clust1" class="cluster">
<title>cluster_AuthModule</title>
<polygon fill="none" stroke="black" stroke-dasharray="1,5" points="8,-32.8 8,-230.8 676,-230.8 676,-32.8 8,-32.8"/>
</g>
<g id="clust4" class="cluster">
<title>cluster_AuthModule_exports</title>
<polygon fill="none" stroke="black" points="296,-170.8 296,-222.8 402,-222.8 402,-170.8 296,-170.8"/>
</g>
<g id="clust3" class="cluster">
<title>cluster_AuthModule_imports</title>
<polygon fill="none" stroke="black" points="158,-40.8 158,-92.8 668,-92.8 668,-40.8 158,-40.8"/>
</g>
<g id="clust6" class="cluster">
<title>cluster_AuthModule_providers</title>
<polygon fill="none" stroke="black" points="16,-40.8 16,-92.8 150,-92.8 150,-40.8 16,-40.8"/>
</g>
<!-- BlockchainModule -->
<g id="node1" class="node">
<title>BlockchainModule</title>
<polygon fill="#8dd3c7" stroke="black" points="659.81,-84.8 656.81,-88.8 635.81,-88.8 632.81,-84.8 536.19,-84.8 536.19,-48.8 659.81,-48.8 659.81,-84.8"/>
<text text-anchor="middle" x="598" y="-62.6" font-family="Times,serif" font-size="14.00">BlockchainModule</text>
</g>
<!-- AuthModule -->
<g id="node5" class="node">
<title>AuthModule</title>
<polygon fill="#8dd3c7" stroke="black" points="392.55,-149.8 389.55,-153.8 368.55,-153.8 365.55,-149.8 305.45,-149.8 305.45,-113.8 392.55,-113.8 392.55,-149.8"/>
<text text-anchor="middle" x="349" y="-127.6" font-family="Times,serif" font-size="14.00">AuthModule</text>
</g>
<!-- BlockchainModule&#45;&gt;AuthModule -->
<g id="edge1" class="edge">
<title>BlockchainModule&#45;&gt;AuthModule</title>
<path fill="none" stroke="black" d="M598,-85.08C598,-106.12 598,-137.8 598,-137.8 598,-137.8 402.66,-137.8 402.66,-137.8"/>
<polygon fill="black" stroke="black" points="402.66,-134.3 392.66,-137.8 402.66,-141.3 402.66,-134.3"/>
</g>
<!-- IdentityModule -->
<g id="node2" class="node">
<title>IdentityModule</title>
<polygon fill="#8dd3c7" stroke="black" points="518.6,-84.8 515.6,-88.8 494.6,-88.8 491.6,-84.8 415.4,-84.8 415.4,-48.8 518.6,-48.8 518.6,-84.8"/>
<text text-anchor="middle" x="467" y="-62.6" font-family="Times,serif" font-size="14.00">IdentityModule</text>
</g>
<!-- IdentityModule&#45;&gt;AuthModule -->
<g id="edge2" class="edge">
<title>IdentityModule&#45;&gt;AuthModule</title>
<path fill="none" stroke="black" d="M467,-84.82C467,-102.17 467,-125.8 467,-125.8 467,-125.8 402.6,-125.8 402.6,-125.8"/>
<polygon fill="black" stroke="black" points="402.6,-122.3 392.6,-125.8 402.6,-129.3 402.6,-122.3"/>
</g>
<!-- ProfileModule -->
<g id="node3" class="node">
<title>ProfileModule</title>
<polygon fill="#8dd3c7" stroke="black" points="397.66,-84.8 394.66,-88.8 373.66,-88.8 370.66,-84.8 300.34,-84.8 300.34,-48.8 397.66,-48.8 397.66,-84.8"/>
<text text-anchor="middle" x="349" y="-62.6" font-family="Times,serif" font-size="14.00">ProfileModule</text>
</g>
<!-- ProfileModule&#45;&gt;AuthModule -->
<g id="edge3" class="edge">
<title>ProfileModule&#45;&gt;AuthModule</title>
<path fill="none" stroke="black" d="M349,-84.91C349,-84.91 349,-103.79 349,-103.79"/>
<polygon fill="black" stroke="black" points="345.5,-103.79 349,-113.79 352.5,-103.79 345.5,-103.79"/>
</g>
<!-- SecuritizeModule -->
<g id="node4" class="node">
<title>SecuritizeModule</title>
<polygon fill="#8dd3c7" stroke="black" points="281.53,-84.8 278.53,-88.8 257.53,-88.8 254.53,-84.8 166.47,-84.8 166.47,-48.8 281.53,-48.8 281.53,-84.8"/>
<text text-anchor="middle" x="224" y="-62.6" font-family="Times,serif" font-size="14.00">SecuritizeModule</text>
</g>
<!-- SecuritizeModule&#45;&gt;AuthModule -->
<g id="edge4" class="edge">
<title>SecuritizeModule&#45;&gt;AuthModule</title>
<path fill="none" stroke="black" d="M224,-84.82C224,-102.17 224,-125.8 224,-125.8 224,-125.8 295.28,-125.8 295.28,-125.8"/>
<polygon fill="black" stroke="black" points="295.28,-129.3 305.28,-125.8 295.28,-122.3 295.28,-129.3"/>
</g>
<!-- AuthService  -->
<g id="node6" class="node">
<title>AuthService </title>
<polygon fill="#fb8072" stroke="black" points="393.98,-214.8 304.02,-214.8 304.02,-178.8 393.98,-178.8 393.98,-214.8"/>
<text text-anchor="middle" x="349" y="-192.6" font-family="Times,serif" font-size="14.00">AuthService </text>
</g>
<!-- AuthModule&#45;&gt;AuthService  -->
<g id="edge5" class="edge">
<title>AuthModule&#45;&gt;AuthService </title>
<path fill="none" stroke="black" stroke-dasharray="5,2" d="M349,-149.91C349,-149.91 349,-168.79 349,-168.79"/>
<polygon fill="black" stroke="black" points="345.5,-168.79 349,-178.79 352.5,-168.79 345.5,-168.79"/>
</g>
<!-- AuthService -->
<g id="node7" class="node">
<title>AuthService</title>
<ellipse fill="#fdb462" stroke="black" cx="83" cy="-66.8" rx="59.11" ry="18"/>
<text text-anchor="middle" x="83" y="-62.6" font-family="Times,serif" font-size="14.00">AuthService</text>
</g>
<!-- AuthService&#45;&gt;AuthModule -->
<g id="edge6" class="edge">
<title>AuthService&#45;&gt;AuthModule</title>
<path fill="none" stroke="black" d="M83,-85.08C83,-106.12 83,-137.8 83,-137.8 83,-137.8 295.37,-137.8 295.37,-137.8"/>
<polygon fill="black" stroke="black" points="295.37,-141.3 305.37,-137.8 295.37,-134.3 295.37,-141.3"/>
</g>
</g>
</svg>
