<?xml version="1.0" encoding="UTF-8" standalone="no"?>
<!DOCTYPE svg PUBLIC "-//W3C//DTD SVG 1.1//EN"
 "http://www.w3.org/Graphics/SVG/1.1/DTD/svg11.dtd">
<!-- Generated by graphviz version 5.0.0 (20220707.1540)
 -->
<!-- Title: dependencies Pages: 1 -->
<svg width="204pt" height="250pt"
 viewBox="0.00 0.00 204.00 249.80" xmlns="http://www.w3.org/2000/svg" xmlns:xlink="http://www.w3.org/1999/xlink">
<g id="graph0" class="graph" transform="scale(1 1) rotate(0) translate(4 245.8)">
<title>dependencies</title>
<polygon fill="white" stroke="transparent" points="-4,4 -4,-245.8 200,-245.8 200,4 -4,4"/>
<text text-anchor="middle" x="98" y="-8.2" font-family="sans-serif" font-size="14.00">dependencies</text>
<g id="clust1" class="cluster">
<title>cluster_AppModule</title>
<polygon fill="none" stroke="black" stroke-dasharray="1,5" points="27,-108.8 27,-233.8 169,-233.8 169,-108.8 27,-108.8"/>
</g>
<g id="clust3" class="cluster">
<title>cluster_AppModule_imports</title>
<polygon fill="none" stroke="black" points="35,-116.8 35,-168.8 161,-168.8 161,-116.8 35,-116.8"/>
</g>
<g id="clust7" class="cluster">
<title>cluster_ExampleModule</title>
<polygon fill="none" stroke="black" stroke-dasharray="1,5" points="8,-32.8 8,-100.8 188,-100.8 188,-32.8 8,-32.8"/>
</g>
<g id="clust12" class="cluster">
<title>cluster_ExampleModule_providers</title>
<polygon fill="none" stroke="black" points="16,-40.8 16,-92.8 180,-92.8 180,-40.8 16,-40.8"/>
</g>
<!-- ExampleModule -->
<g id="node1" class="node">
<title>ExampleModule</title>
<polygon fill="#8dd3c7" stroke="black" points="152.81,-160.8 149.81,-164.8 128.81,-164.8 125.81,-160.8 43.19,-160.8 43.19,-124.8 152.81,-124.8 152.81,-160.8"/>
<text text-anchor="middle" x="98" y="-138.6" font-family="Times,serif" font-size="14.00">ExampleModule</text>
</g>
<!-- AppModule -->
<g id="node2" class="node">
<title>AppModule</title>
<polygon fill="#8dd3c7" stroke="black" points="139.66,-225.8 136.66,-229.8 115.66,-229.8 112.66,-225.8 56.34,-225.8 56.34,-189.8 139.66,-189.8 139.66,-225.8"/>
<text text-anchor="middle" x="98" y="-203.6" font-family="Times,serif" font-size="14.00">AppModule</text>
</g>
<!-- ExampleModule&#45;&gt;AppModule -->
<g id="edge1" class="edge">
<title>ExampleModule&#45;&gt;AppModule</title>
<path fill="none" stroke="black" d="M98,-160.91C98,-160.91 98,-179.79 98,-179.79"/>
<polygon fill="black" stroke="black" points="94.5,-179.79 98,-189.79 101.5,-179.79 94.5,-179.79"/>
</g>
<!-- ExampleService -->
<g id="node3" class="node">
<title>ExampleService</title>
<ellipse fill="#fdb462" stroke="black" cx="98" cy="-66.8" rx="74.13" ry="18"/>
<text text-anchor="middle" x="98" y="-62.6" font-family="Times,serif" font-size="14.00">ExampleService</text>
</g>
<!-- ExampleService&#45;&gt;ExampleModule -->
<g id="edge2" class="edge">
<title>ExampleService&#45;&gt;ExampleModule</title>
<path fill="none" stroke="black" d="M98,-84.81C98,-84.81 98,-114.65 98,-114.65"/>
<polygon fill="black" stroke="black" points="94.5,-114.65 98,-124.65 101.5,-114.65 94.5,-114.65"/>
</g>
</g>
</svg>
