<?xml version="1.0" encoding="UTF-8" standalone="no"?>
<!DOCTYPE svg PUBLIC "-//W3C//DTD SVG 1.1//EN"
 "http://www.w3.org/Graphics/SVG/1.1/DTD/svg11.dtd">
<!-- Generated by graphviz version 5.0.0 (20220707.1540)
 -->
<!-- Title: dependencies Pages: 1 -->
<svg width="286pt" height="247pt"
 viewBox="0.00 0.00 286.00 246.80" xmlns="http://www.w3.org/2000/svg" xmlns:xlink="http://www.w3.org/1999/xlink">
<g id="graph0" class="graph" transform="scale(1 1) rotate(0) translate(4 242.8)">
<title>dependencies</title>
<polygon fill="white" stroke="transparent" points="-4,4 -4,-242.8 282,-242.8 282,4 -4,4"/>
<text text-anchor="middle" x="139" y="-8.2" font-family="sans-serif" font-size="14.00">dependencies</text>
<g id="clust1" class="cluster">
<title>cluster_TransactionHistoryModule</title>
<polygon fill="none" stroke="black" stroke-dasharray="1,5" points="8,-32.8 8,-230.8 270,-230.8 270,-32.8 8,-32.8"/>
</g>
<g id="clust6" class="cluster">
<title>cluster_TransactionHistoryModule_providers</title>
<polygon fill="none" stroke="black" points="16,-40.8 16,-92.8 262,-92.8 262,-40.8 16,-40.8"/>
</g>
<g id="clust4" class="cluster">
<title>cluster_TransactionHistoryModule_exports</title>
<polygon fill="none" stroke="black" points="46,-170.8 46,-222.8 232,-222.8 232,-170.8 46,-170.8"/>
</g>
<!-- TransactionHistoryService  -->
<g id="node1" class="node">
<title>TransactionHistoryService </title>
<polygon fill="#fb8072" stroke="black" points="223.56,-214.8 54.44,-214.8 54.44,-178.8 223.56,-178.8 223.56,-214.8"/>
<text text-anchor="middle" x="139" y="-192.6" font-family="Times,serif" font-size="14.00">TransactionHistoryService </text>
</g>
<!-- TransactionHistoryModule -->
<g id="node2" class="node">
<title>TransactionHistoryModule</title>
<polygon fill="#8dd3c7" stroke="black" points="222.64,-149.8 219.64,-153.8 198.64,-153.8 195.64,-149.8 55.36,-149.8 55.36,-113.8 222.64,-113.8 222.64,-149.8"/>
<text text-anchor="middle" x="139" y="-127.6" font-family="Times,serif" font-size="14.00">TransactionHistoryModule</text>
</g>
<!-- TransactionHistoryModule&#45;&gt;TransactionHistoryService  -->
<g id="edge1" class="edge">
<title>TransactionHistoryModule&#45;&gt;TransactionHistoryService </title>
<path fill="none" stroke="black" stroke-dasharray="5,2" d="M139,-149.91C139,-149.91 139,-168.79 139,-168.79"/>
<polygon fill="black" stroke="black" points="135.5,-168.79 139,-178.79 142.5,-168.79 135.5,-168.79"/>
</g>
<!-- TransactionHistoryService -->
<g id="node3" class="node">
<title>TransactionHistoryService</title>
<ellipse fill="#fdb462" stroke="black" cx="139" cy="-66.8" rx="114.59" ry="18"/>
<text text-anchor="middle" x="139" y="-62.6" font-family="Times,serif" font-size="14.00">TransactionHistoryService</text>
</g>
<!-- TransactionHistoryService&#45;&gt;TransactionHistoryModule -->
<g id="edge2" class="edge">
<title>TransactionHistoryService&#45;&gt;TransactionHistoryModule</title>
<path fill="none" stroke="black" d="M139,-84.91C139,-84.91 139,-103.79 139,-103.79"/>
<polygon fill="black" stroke="black" points="135.5,-103.79 139,-113.79 142.5,-103.79 135.5,-103.79"/>
</g>
</g>
</svg>
