<?xml version="1.0" encoding="UTF-8" standalone="no"?>
<!DOCTYPE svg PUBLIC "-//W3C//DTD SVG 1.1//EN"
 "http://www.w3.org/Graphics/SVG/1.1/DTD/svg11.dtd">
<!-- Generated by graphviz version 5.0.0 (20220707.1540)
 -->
<!-- Title: dependencies Pages: 1 -->
<svg width="388pt" height="174pt"
 viewBox="0.00 0.00 388.00 173.80" xmlns="http://www.w3.org/2000/svg" xmlns:xlink="http://www.w3.org/1999/xlink">
<g id="graph0" class="graph" transform="scale(1 1) rotate(0) translate(4 169.8)">
<title>dependencies</title>
<polygon fill="white" stroke="transparent" points="-4,4 -4,-169.8 384,-169.8 384,4 -4,4"/>
<text text-anchor="middle" x="190" y="-8.2" font-family="sans-serif" font-size="14.00">dependencies</text>
<g id="clust1" class="cluster">
<title>cluster_PodcastModule</title>
<polygon fill="none" stroke="black" stroke-dasharray="1,5" points="8,-32.8 8,-157.8 372,-157.8 372,-32.8 8,-32.8"/>
</g>
<g id="clust6" class="cluster">
<title>cluster_PodcastModule_providers</title>
<polygon fill="none" stroke="black" points="16,-40.8 16,-92.8 364,-92.8 364,-40.8 16,-40.8"/>
</g>
<!-- NotificationService -->
<g id="node1" class="node">
<title>NotificationService</title>
<ellipse fill="#fdb462" stroke="black" cx="269" cy="-66.8" rx="86.81" ry="18"/>
<text text-anchor="middle" x="269" y="-62.6" font-family="Times,serif" font-size="14.00">NotificationService</text>
</g>
<!-- PodcastModule -->
<g id="node3" class="node">
<title>PodcastModule</title>
<polygon fill="#8dd3c7" stroke="black" points="232.6,-149.8 229.6,-153.8 208.6,-153.8 205.6,-149.8 129.4,-149.8 129.4,-113.8 232.6,-113.8 232.6,-149.8"/>
<text text-anchor="middle" x="181" y="-127.6" font-family="Times,serif" font-size="14.00">PodcastModule</text>
</g>
<!-- NotificationService&#45;&gt;PodcastModule -->
<g id="edge1" class="edge">
<title>NotificationService&#45;&gt;PodcastModule</title>
<path fill="none" stroke="black" d="M207.45,-79.64C207.45,-79.64 207.45,-103.32 207.45,-103.32"/>
<polygon fill="black" stroke="black" points="203.95,-103.32 207.45,-113.32 210.95,-103.32 203.95,-103.32"/>
</g>
<!-- PodcastService -->
<g id="node2" class="node">
<title>PodcastService</title>
<ellipse fill="#fdb462" stroke="black" cx="94" cy="-66.8" rx="70.07" ry="18"/>
<text text-anchor="middle" x="94" y="-62.6" font-family="Times,serif" font-size="14.00">PodcastService</text>
</g>
<!-- PodcastService&#45;&gt;PodcastModule -->
<g id="edge2" class="edge">
<title>PodcastService&#45;&gt;PodcastModule</title>
<path fill="none" stroke="black" d="M146.74,-78.72C146.74,-78.72 146.74,-103.57 146.74,-103.57"/>
<polygon fill="black" stroke="black" points="143.24,-103.57 146.74,-113.57 150.24,-103.57 143.24,-103.57"/>
</g>
</g>
</svg>
