<?xml version="1.0" encoding="UTF-8" standalone="no"?>
<!DOCTYPE svg PUBLIC "-//W3C//DTD SVG 1.1//EN"
 "http://www.w3.org/Graphics/SVG/1.1/DTD/svg11.dtd">
<!-- Generated by graphviz version 5.0.0 (20220707.1540)
 -->
<!-- Title: dependencies Pages: 1 -->
<svg width="460pt" height="174pt"
 viewBox="0.00 0.00 460.00 173.80" xmlns="http://www.w3.org/2000/svg" xmlns:xlink="http://www.w3.org/1999/xlink">
<g id="graph0" class="graph" transform="scale(1 1) rotate(0) translate(4 169.8)">
<title>dependencies</title>
<polygon fill="white" stroke="transparent" points="-4,4 -4,-169.8 456,-169.8 456,4 -4,4"/>
<text text-anchor="middle" x="226" y="-8.2" font-family="sans-serif" font-size="14.00">dependencies</text>
<g id="clust1" class="cluster">
<title>cluster_CollectionModule</title>
<polygon fill="none" stroke="black" stroke-dasharray="1,5" points="8,-32.8 8,-157.8 444,-157.8 444,-32.8 8,-32.8"/>
</g>
<g id="clust6" class="cluster">
<title>cluster_CollectionModule_providers</title>
<polygon fill="none" stroke="black" points="260,-40.8 260,-92.8 436,-92.8 436,-40.8 260,-40.8"/>
</g>
<g id="clust3" class="cluster">
<title>cluster_CollectionModule_imports</title>
<polygon fill="none" stroke="black" points="16,-40.8 16,-92.8 252,-92.8 252,-40.8 16,-40.8"/>
</g>
<!-- BlockchainModule -->
<g id="node1" class="node">
<title>BlockchainModule</title>
<polygon fill="#8dd3c7" stroke="black" points="243.81,-84.8 240.81,-88.8 219.81,-88.8 216.81,-84.8 120.19,-84.8 120.19,-48.8 243.81,-48.8 243.81,-84.8"/>
<text text-anchor="middle" x="182" y="-62.6" font-family="Times,serif" font-size="14.00">BlockchainModule</text>
</g>
<!-- CollectionModule -->
<g id="node3" class="node">
<title>CollectionModule</title>
<polygon fill="#8dd3c7" stroke="black" points="240.88,-149.8 237.88,-153.8 216.88,-153.8 213.88,-149.8 123.12,-149.8 123.12,-113.8 240.88,-113.8 240.88,-149.8"/>
<text text-anchor="middle" x="182" y="-127.6" font-family="Times,serif" font-size="14.00">CollectionModule</text>
</g>
<!-- BlockchainModule&#45;&gt;CollectionModule -->
<g id="edge1" class="edge">
<title>BlockchainModule&#45;&gt;CollectionModule</title>
<path fill="none" stroke="black" d="M182,-84.91C182,-84.91 182,-103.79 182,-103.79"/>
<polygon fill="black" stroke="black" points="178.5,-103.79 182,-113.79 185.5,-103.79 178.5,-103.79"/>
</g>
<!-- NftModule -->
<g id="node2" class="node">
<title>NftModule</title>
<polygon fill="#8dd3c7" stroke="black" points="102.21,-84.8 99.21,-88.8 78.21,-88.8 75.21,-84.8 23.79,-84.8 23.79,-48.8 102.21,-48.8 102.21,-84.8"/>
<text text-anchor="middle" x="63" y="-62.6" font-family="Times,serif" font-size="14.00">NftModule</text>
</g>
<!-- NftModule&#45;&gt;CollectionModule -->
<g id="edge2" class="edge">
<title>NftModule&#45;&gt;CollectionModule</title>
<path fill="none" stroke="black" d="M63,-84.91C63,-104.14 63,-131.8 63,-131.8 63,-131.8 112.85,-131.8 112.85,-131.8"/>
<polygon fill="black" stroke="black" points="112.85,-135.3 122.85,-131.8 112.85,-128.3 112.85,-135.3"/>
</g>
<!-- CollectionService -->
<g id="node4" class="node">
<title>CollectionService</title>
<ellipse fill="#fdb462" stroke="black" cx="348" cy="-66.8" rx="80.45" ry="18"/>
<text text-anchor="middle" x="348" y="-62.6" font-family="Times,serif" font-size="14.00">CollectionService</text>
</g>
<!-- CollectionService&#45;&gt;CollectionModule -->
<g id="edge3" class="edge">
<title>CollectionService&#45;&gt;CollectionModule</title>
<path fill="none" stroke="black" d="M348,-84.91C348,-104.14 348,-131.8 348,-131.8 348,-131.8 250.99,-131.8 250.99,-131.8"/>
<polygon fill="black" stroke="black" points="250.99,-128.3 240.99,-131.8 250.99,-135.3 250.99,-128.3"/>
</g>
</g>
</svg>
