<?xml version="1.0" encoding="UTF-8" standalone="no"?>
<!DOCTYPE svg PUBLIC "-//W3C//DTD SVG 1.1//EN"
 "http://www.w3.org/Graphics/SVG/1.1/DTD/svg11.dtd">
<!-- Generated by graphviz version 5.0.0 (20220707.1540)
 -->
<!-- Title: dependencies Pages: 1 -->
<svg width="282pt" height="247pt"
 viewBox="0.00 0.00 282.00 246.80" xmlns="http://www.w3.org/2000/svg" xmlns:xlink="http://www.w3.org/1999/xlink">
<g id="graph0" class="graph" transform="scale(1 1) rotate(0) translate(4 242.8)">
<title>dependencies</title>
<polygon fill="white" stroke="transparent" points="-4,4 -4,-242.8 278,-242.8 278,4 -4,4"/>
<text text-anchor="middle" x="137" y="-8.2" font-family="sans-serif" font-size="14.00">dependencies</text>
<g id="clust1" class="cluster">
<title>cluster_NftModule</title>
<polygon fill="none" stroke="black" stroke-dasharray="1,5" points="8,-32.8 8,-230.8 266,-230.8 266,-32.8 8,-32.8"/>
</g>
<g id="clust6" class="cluster">
<title>cluster_NftModule_providers</title>
<polygon fill="none" stroke="black" points="136,-40.8 136,-92.8 258,-92.8 258,-40.8 136,-40.8"/>
</g>
<g id="clust4" class="cluster">
<title>cluster_NftModule_exports</title>
<polygon fill="none" stroke="black" points="86,-170.8 86,-222.8 182,-222.8 182,-170.8 86,-170.8"/>
</g>
<g id="clust3" class="cluster">
<title>cluster_NftModule_imports</title>
<polygon fill="none" stroke="black" points="16,-40.8 16,-92.8 128,-92.8 128,-40.8 16,-40.8"/>
</g>
<!-- RabbitModule -->
<g id="node1" class="node">
<title>RabbitModule</title>
<polygon fill="#8dd3c7" stroke="black" points="120.38,-84.8 117.38,-88.8 96.38,-88.8 93.38,-84.8 23.62,-84.8 23.62,-48.8 120.38,-48.8 120.38,-84.8"/>
<text text-anchor="middle" x="72" y="-62.6" font-family="Times,serif" font-size="14.00">RabbitModule</text>
</g>
<!-- NftModule -->
<g id="node2" class="node">
<title>NftModule</title>
<polygon fill="#8dd3c7" stroke="black" points="173.21,-149.8 170.21,-153.8 149.21,-153.8 146.21,-149.8 94.79,-149.8 94.79,-113.8 173.21,-113.8 173.21,-149.8"/>
<text text-anchor="middle" x="134" y="-127.6" font-family="Times,serif" font-size="14.00">NftModule</text>
</g>
<!-- RabbitModule&#45;&gt;NftModule -->
<g id="edge1" class="edge">
<title>RabbitModule&#45;&gt;NftModule</title>
<path fill="none" stroke="black" d="M107.67,-84.91C107.67,-84.91 107.67,-103.79 107.67,-103.79"/>
<polygon fill="black" stroke="black" points="104.17,-103.79 107.67,-113.79 111.17,-103.79 104.17,-103.79"/>
</g>
<!-- NftService  -->
<g id="node3" class="node">
<title>NftService </title>
<polygon fill="#fb8072" stroke="black" points="174.14,-214.8 93.86,-214.8 93.86,-178.8 174.14,-178.8 174.14,-214.8"/>
<text text-anchor="middle" x="134" y="-192.6" font-family="Times,serif" font-size="14.00">NftService </text>
</g>
<!-- NftModule&#45;&gt;NftService  -->
<g id="edge2" class="edge">
<title>NftModule&#45;&gt;NftService </title>
<path fill="none" stroke="black" stroke-dasharray="5,2" d="M134,-149.91C134,-149.91 134,-168.79 134,-168.79"/>
<polygon fill="black" stroke="black" points="130.5,-168.79 134,-178.79 137.5,-168.79 130.5,-168.79"/>
</g>
<!-- NftService -->
<g id="node4" class="node">
<title>NftService</title>
<ellipse fill="#fdb462" stroke="black" cx="197" cy="-66.8" rx="52.73" ry="18"/>
<text text-anchor="middle" x="197" y="-62.6" font-family="Times,serif" font-size="14.00">NftService</text>
</g>
<!-- NftService&#45;&gt;NftModule -->
<g id="edge3" class="edge">
<title>NftService&#45;&gt;NftModule</title>
<path fill="none" stroke="black" d="M158.62,-79.33C158.62,-79.33 158.62,-103.65 158.62,-103.65"/>
<polygon fill="black" stroke="black" points="155.12,-103.65 158.62,-113.65 162.12,-103.65 155.12,-103.65"/>
</g>
</g>
</svg>
