<?xml version="1.0" encoding="UTF-8" standalone="no"?>
<!DOCTYPE svg PUBLIC "-//W3C//DTD SVG 1.1//EN"
 "http://www.w3.org/Graphics/SVG/1.1/DTD/svg11.dtd">
<!-- Generated by graphviz version 5.0.0 (20220707.1540)
 -->
<!-- Title: dependencies Pages: 1 -->
<svg width="386pt" height="174pt"
 viewBox="0.00 0.00 386.00 173.80" xmlns="http://www.w3.org/2000/svg" xmlns:xlink="http://www.w3.org/1999/xlink">
<g id="graph0" class="graph" transform="scale(1 1) rotate(0) translate(4 169.8)">
<title>dependencies</title>
<polygon fill="white" stroke="transparent" points="-4,4 -4,-169.8 382,-169.8 382,4 -4,4"/>
<text text-anchor="middle" x="189" y="-8.2" font-family="sans-serif" font-size="14.00">dependencies</text>
<g id="clust1" class="cluster">
<title>cluster_LibraryModule</title>
<polygon fill="none" stroke="black" stroke-dasharray="1,5" points="8,-32.8 8,-157.8 370,-157.8 370,-32.8 8,-32.8"/>
</g>
<g id="clust6" class="cluster">
<title>cluster_LibraryModule_providers</title>
<polygon fill="none" stroke="black" points="16,-40.8 16,-92.8 362,-92.8 362,-40.8 16,-40.8"/>
</g>
<!-- LibraryService -->
<g id="node1" class="node">
<title>LibraryService</title>
<ellipse fill="#fdb462" stroke="black" cx="285" cy="-66.8" rx="68.9" ry="18"/>
<text text-anchor="middle" x="285" y="-62.6" font-family="Times,serif" font-size="14.00">LibraryService</text>
</g>
<!-- LibraryModule -->
<g id="node3" class="node">
<title>LibraryModule</title>
<polygon fill="#8dd3c7" stroke="black" points="248.53,-149.8 245.53,-153.8 224.53,-153.8 221.53,-149.8 147.47,-149.8 147.47,-113.8 248.53,-113.8 248.53,-149.8"/>
<text text-anchor="middle" x="198" y="-127.6" font-family="Times,serif" font-size="14.00">LibraryModule</text>
</g>
<!-- LibraryService&#45;&gt;LibraryModule -->
<g id="edge1" class="edge">
<title>LibraryService&#45;&gt;LibraryModule</title>
<path fill="none" stroke="black" d="M232.41,-78.72C232.41,-78.72 232.41,-103.57 232.41,-103.57"/>
<polygon fill="black" stroke="black" points="228.91,-103.57 232.41,-113.57 235.91,-103.57 228.91,-103.57"/>
</g>
<!-- NotificationService -->
<g id="node2" class="node">
<title>NotificationService</title>
<ellipse fill="#fdb462" stroke="black" cx="111" cy="-66.8" rx="86.81" ry="18"/>
<text text-anchor="middle" x="111" y="-62.6" font-family="Times,serif" font-size="14.00">NotificationService</text>
</g>
<!-- NotificationService&#45;&gt;LibraryModule -->
<g id="edge2" class="edge">
<title>NotificationService&#45;&gt;LibraryModule</title>
<path fill="none" stroke="black" d="M172.45,-79.64C172.45,-79.64 172.45,-103.32 172.45,-103.32"/>
<polygon fill="black" stroke="black" points="168.95,-103.32 172.45,-113.32 175.95,-103.32 168.95,-103.32"/>
</g>
</g>
</svg>
