<?xml version="1.0" encoding="UTF-8" standalone="no"?>
<!DOCTYPE svg PUBLIC "-//W3C//DTD SVG 1.1//EN"
 "http://www.w3.org/Graphics/SVG/1.1/DTD/svg11.dtd">
<!-- Generated by graphviz version 5.0.0 (20220707.1540)
 -->
<!-- Title: dependencies Pages: 1 -->
<svg width="372pt" height="247pt"
 viewBox="0.00 0.00 372.00 246.80" xmlns="http://www.w3.org/2000/svg" xmlns:xlink="http://www.w3.org/1999/xlink">
<g id="graph0" class="graph" transform="scale(1 1) rotate(0) translate(4 242.8)">
<title>dependencies</title>
<polygon fill="white" stroke="transparent" points="-4,4 -4,-242.8 368,-242.8 368,4 -4,4"/>
<text text-anchor="middle" x="182" y="-8.2" font-family="sans-serif" font-size="14.00">dependencies</text>
<g id="clust1" class="cluster">
<title>cluster_NewsModule</title>
<polygon fill="none" stroke="black" stroke-dasharray="1,5" points="8,-32.8 8,-230.8 356,-230.8 356,-32.8 8,-32.8"/>
</g>
<g id="clust4" class="cluster">
<title>cluster_NewsModule_exports</title>
<polygon fill="none" stroke="black" points="139,-170.8 139,-222.8 249,-222.8 249,-170.8 139,-170.8"/>
</g>
<g id="clust6" class="cluster">
<title>cluster_NewsModule_providers</title>
<polygon fill="none" stroke="black" points="16,-40.8 16,-92.8 348,-92.8 348,-40.8 16,-40.8"/>
</g>
<!-- NewsService  -->
<g id="node1" class="node">
<title>NewsService </title>
<polygon fill="#fb8072" stroke="black" points="240.86,-214.8 147.14,-214.8 147.14,-178.8 240.86,-178.8 240.86,-214.8"/>
<text text-anchor="middle" x="194" y="-192.6" font-family="Times,serif" font-size="14.00">NewsService </text>
</g>
<!-- NewsModule -->
<g id="node2" class="node">
<title>NewsModule</title>
<polygon fill="#8dd3c7" stroke="black" points="239.94,-149.8 236.94,-153.8 215.94,-153.8 212.94,-149.8 148.06,-149.8 148.06,-113.8 239.94,-113.8 239.94,-149.8"/>
<text text-anchor="middle" x="194" y="-127.6" font-family="Times,serif" font-size="14.00">NewsModule</text>
</g>
<!-- NewsModule&#45;&gt;NewsService  -->
<g id="edge1" class="edge">
<title>NewsModule&#45;&gt;NewsService </title>
<path fill="none" stroke="black" stroke-dasharray="5,2" d="M194,-149.91C194,-149.91 194,-168.79 194,-168.79"/>
<polygon fill="black" stroke="black" points="190.5,-168.79 194,-178.79 197.5,-168.79 190.5,-168.79"/>
</g>
<!-- NewsService -->
<g id="node3" class="node">
<title>NewsService</title>
<ellipse fill="#fdb462" stroke="black" cx="278" cy="-66.8" rx="61.97" ry="18"/>
<text text-anchor="middle" x="278" y="-62.6" font-family="Times,serif" font-size="14.00">NewsService</text>
</g>
<!-- NewsService&#45;&gt;NewsModule -->
<g id="edge2" class="edge">
<title>NewsService&#45;&gt;NewsModule</title>
<path fill="none" stroke="black" d="M227.87,-77.53C227.87,-77.53 227.87,-103.67 227.87,-103.67"/>
<polygon fill="black" stroke="black" points="224.37,-103.67 227.87,-113.67 231.37,-103.67 224.37,-103.67"/>
</g>
<!-- NotificationService -->
<g id="node4" class="node">
<title>NotificationService</title>
<ellipse fill="#fdb462" stroke="black" cx="111" cy="-66.8" rx="86.81" ry="18"/>
<text text-anchor="middle" x="111" y="-62.6" font-family="Times,serif" font-size="14.00">NotificationService</text>
</g>
<!-- NotificationService&#45;&gt;NewsModule -->
<g id="edge3" class="edge">
<title>NotificationService&#45;&gt;NewsModule</title>
<path fill="none" stroke="black" d="M172.97,-79.64C172.97,-79.64 172.97,-103.32 172.97,-103.32"/>
<polygon fill="black" stroke="black" points="169.47,-103.32 172.97,-113.32 176.47,-103.32 169.47,-103.32"/>
</g>
</g>
</svg>
