<?xml version="1.0" encoding="UTF-8" standalone="no"?>
<!DOCTYPE svg PUBLIC "-//W3C//DTD SVG 1.1//EN"
 "http://www.w3.org/Graphics/SVG/1.1/DTD/svg11.dtd">
<!-- Generated by graphviz version 5.0.0 (20220707.1540)
 -->
<!-- Title: dependencies Pages: 1 -->
<svg width="188pt" height="247pt"
 viewBox="0.00 0.00 188.00 246.80" xmlns="http://www.w3.org/2000/svg" xmlns:xlink="http://www.w3.org/1999/xlink">
<g id="graph0" class="graph" transform="scale(1 1) rotate(0) translate(4 242.8)">
<title>dependencies</title>
<polygon fill="white" stroke="transparent" points="-4,4 -4,-242.8 184,-242.8 184,4 -4,4"/>
<text text-anchor="middle" x="90" y="-8.2" font-family="sans-serif" font-size="14.00">dependencies</text>
<g id="clust1" class="cluster">
<title>cluster_ProfileModule</title>
<polygon fill="none" stroke="black" stroke-dasharray="1,5" points="8,-32.8 8,-230.8 172,-230.8 172,-32.8 8,-32.8"/>
</g>
<g id="clust6" class="cluster">
<title>cluster_ProfileModule_providers</title>
<polygon fill="none" stroke="black" points="16,-40.8 16,-92.8 164,-92.8 164,-40.8 16,-40.8"/>
</g>
<g id="clust4" class="cluster">
<title>cluster_ProfileModule_exports</title>
<polygon fill="none" stroke="black" points="32,-170.8 32,-222.8 148,-222.8 148,-170.8 32,-170.8"/>
</g>
<!-- ProfileService  -->
<g id="node1" class="node">
<title>ProfileService </title>
<polygon fill="#fb8072" stroke="black" points="139.58,-214.8 40.42,-214.8 40.42,-178.8 139.58,-178.8 139.58,-214.8"/>
<text text-anchor="middle" x="90" y="-192.6" font-family="Times,serif" font-size="14.00">ProfileService </text>
</g>
<!-- ProfileModule -->
<g id="node2" class="node">
<title>ProfileModule</title>
<polygon fill="#8dd3c7" stroke="black" points="138.66,-149.8 135.66,-153.8 114.66,-153.8 111.66,-149.8 41.34,-149.8 41.34,-113.8 138.66,-113.8 138.66,-149.8"/>
<text text-anchor="middle" x="90" y="-127.6" font-family="Times,serif" font-size="14.00">ProfileModule</text>
</g>
<!-- ProfileModule&#45;&gt;ProfileService  -->
<g id="edge1" class="edge">
<title>ProfileModule&#45;&gt;ProfileService </title>
<path fill="none" stroke="black" stroke-dasharray="5,2" d="M90,-149.91C90,-149.91 90,-168.79 90,-168.79"/>
<polygon fill="black" stroke="black" points="86.5,-168.79 90,-178.79 93.5,-168.79 86.5,-168.79"/>
</g>
<!-- ProfileService -->
<g id="node3" class="node">
<title>ProfileService</title>
<ellipse fill="#fdb462" stroke="black" cx="90" cy="-66.8" rx="66.05" ry="18"/>
<text text-anchor="middle" x="90" y="-62.6" font-family="Times,serif" font-size="14.00">ProfileService</text>
</g>
<!-- ProfileService&#45;&gt;ProfileModule -->
<g id="edge2" class="edge">
<title>ProfileService&#45;&gt;ProfileModule</title>
<path fill="none" stroke="black" d="M90,-84.91C90,-84.91 90,-103.79 90,-103.79"/>
<polygon fill="black" stroke="black" points="86.5,-103.79 90,-113.79 93.5,-103.79 86.5,-103.79"/>
</g>
</g>
</svg>
