<?xml version="1.0" encoding="UTF-8" standalone="no"?>
<!DOCTYPE svg PUBLIC "-//W3C//DTD SVG 1.1//EN"
 "http://www.w3.org/Graphics/SVG/1.1/DTD/svg11.dtd">
<!-- Generated by graphviz version 5.0.0 (20220707.1540)
 -->
<!-- Title: dependencies Pages: 1 -->
<svg width="166pt" height="174pt"
 viewBox="0.00 0.00 166.00 173.80" xmlns="http://www.w3.org/2000/svg" xmlns:xlink="http://www.w3.org/1999/xlink">
<g id="graph0" class="graph" transform="scale(1 1) rotate(0) translate(4 169.8)">
<title>dependencies</title>
<polygon fill="white" stroke="transparent" points="-4,4 -4,-169.8 162,-169.8 162,4 -4,4"/>
<text text-anchor="middle" x="79" y="-8.2" font-family="sans-serif" font-size="14.00">dependencies</text>
<g id="clust1" class="cluster">
<title>cluster_AppModule</title>
<polygon fill="none" stroke="black" stroke-dasharray="1,5" points="8,-32.8 8,-157.8 150,-157.8 150,-32.8 8,-32.8"/>
</g>
<g id="clust3" class="cluster">
<title>cluster_AppModule_imports</title>
<polygon fill="none" stroke="black" points="16,-40.8 16,-92.8 142,-92.8 142,-40.8 16,-40.8"/>
</g>
<!-- ExampleModule -->
<g id="node1" class="node">
<title>ExampleModule</title>
<polygon fill="#8dd3c7" stroke="black" points="133.81,-84.8 130.81,-88.8 109.81,-88.8 106.81,-84.8 24.19,-84.8 24.19,-48.8 133.81,-48.8 133.81,-84.8"/>
<text text-anchor="middle" x="79" y="-62.6" font-family="Times,serif" font-size="14.00">ExampleModule</text>
</g>
<!-- AppModule -->
<g id="node2" class="node">
<title>AppModule</title>
<polygon fill="#8dd3c7" stroke="black" points="120.66,-149.8 117.66,-153.8 96.66,-153.8 93.66,-149.8 37.34,-149.8 37.34,-113.8 120.66,-113.8 120.66,-149.8"/>
<text text-anchor="middle" x="79" y="-127.6" font-family="Times,serif" font-size="14.00">AppModule</text>
</g>
<!-- ExampleModule&#45;&gt;AppModule -->
<g id="edge1" class="edge">
<title>ExampleModule&#45;&gt;AppModule</title>
<path fill="none" stroke="black" d="M79,-84.91C79,-84.91 79,-103.79 79,-103.79"/>
<polygon fill="black" stroke="black" points="75.5,-103.79 79,-113.79 82.5,-103.79 75.5,-103.79"/>
</g>
</g>
</svg>
