<?xml version="1.0" encoding="UTF-8" standalone="no"?>
<!DOCTYPE svg PUBLIC "-//W3C//DTD SVG 1.1//EN"
 "http://www.w3.org/Graphics/SVG/1.1/DTD/svg11.dtd">
<!-- Generated by graphviz version 5.0.0 (20220707.1540)
 -->
<!-- Title: dependencies Pages: 1 -->
<svg width="362pt" height="247pt"
 viewBox="0.00 0.00 362.00 246.80" xmlns="http://www.w3.org/2000/svg" xmlns:xlink="http://www.w3.org/1999/xlink">
<g id="graph0" class="graph" transform="scale(1 1) rotate(0) translate(4 242.8)">
<title>dependencies</title>
<polygon fill="white" stroke="transparent" points="-4,4 -4,-242.8 358,-242.8 358,4 -4,4"/>
<text text-anchor="middle" x="177" y="-8.2" font-family="sans-serif" font-size="14.00">dependencies</text>
<g id="clust1" class="cluster">
<title>cluster_SecuritizeModule</title>
<polygon fill="none" stroke="black" stroke-dasharray="1,5" points="8,-32.8 8,-230.8 346,-230.8 346,-32.8 8,-32.8"/>
</g>
<g id="clust3" class="cluster">
<title>cluster_SecuritizeModule_imports</title>
<polygon fill="none" stroke="black" points="198,-40.8 198,-92.8 338,-92.8 338,-40.8 198,-40.8"/>
</g>
<g id="clust4" class="cluster">
<title>cluster_SecuritizeModule_exports</title>
<polygon fill="none" stroke="black" points="118,-170.8 118,-222.8 252,-222.8 252,-170.8 118,-170.8"/>
</g>
<g id="clust6" class="cluster">
<title>cluster_SecuritizeModule_providers</title>
<polygon fill="none" stroke="black" points="16,-40.8 16,-92.8 190,-92.8 190,-40.8 16,-40.8"/>
</g>
<!-- BlockchainModule -->
<g id="node1" class="node">
<title>BlockchainModule</title>
<polygon fill="#8dd3c7" stroke="black" points="329.81,-84.8 326.81,-88.8 305.81,-88.8 302.81,-84.8 206.19,-84.8 206.19,-48.8 329.81,-48.8 329.81,-84.8"/>
<text text-anchor="middle" x="268" y="-62.6" font-family="Times,serif" font-size="14.00">BlockchainModule</text>
</g>
<!-- SecuritizeModule -->
<g id="node2" class="node">
<title>SecuritizeModule</title>
<polygon fill="#8dd3c7" stroke="black" points="242.53,-149.8 239.53,-153.8 218.53,-153.8 215.53,-149.8 127.47,-149.8 127.47,-113.8 242.53,-113.8 242.53,-149.8"/>
<text text-anchor="middle" x="185" y="-127.6" font-family="Times,serif" font-size="14.00">SecuritizeModule</text>
</g>
<!-- BlockchainModule&#45;&gt;SecuritizeModule -->
<g id="edge1" class="edge">
<title>BlockchainModule&#45;&gt;SecuritizeModule</title>
<path fill="none" stroke="black" d="M224.55,-84.91C224.55,-84.91 224.55,-103.79 224.55,-103.79"/>
<polygon fill="black" stroke="black" points="221.05,-103.79 224.55,-113.79 228.05,-103.79 221.05,-103.79"/>
</g>
<!-- SecuritizeService  -->
<g id="node3" class="node">
<title>SecuritizeService </title>
<polygon fill="#fb8072" stroke="black" points="243.95,-214.8 126.05,-214.8 126.05,-178.8 243.95,-178.8 243.95,-214.8"/>
<text text-anchor="middle" x="185" y="-192.6" font-family="Times,serif" font-size="14.00">SecuritizeService </text>
</g>
<!-- SecuritizeModule&#45;&gt;SecuritizeService  -->
<g id="edge2" class="edge">
<title>SecuritizeModule&#45;&gt;SecuritizeService </title>
<path fill="none" stroke="black" stroke-dasharray="5,2" d="M185,-149.91C185,-149.91 185,-168.79 185,-168.79"/>
<polygon fill="black" stroke="black" points="181.5,-168.79 185,-178.79 188.5,-168.79 181.5,-168.79"/>
</g>
<!-- SecuritizeService -->
<g id="node4" class="node">
<title>SecuritizeService</title>
<ellipse fill="#fdb462" stroke="black" cx="103" cy="-66.8" rx="78.7" ry="18"/>
<text text-anchor="middle" x="103" y="-62.6" font-family="Times,serif" font-size="14.00">SecuritizeService</text>
</g>
<!-- SecuritizeService&#45;&gt;SecuritizeModule -->
<g id="edge3" class="edge">
<title>SecuritizeService&#45;&gt;SecuritizeModule</title>
<path fill="none" stroke="black" d="M154.42,-80.58C154.42,-80.58 154.42,-103.35 154.42,-103.35"/>
<polygon fill="black" stroke="black" points="150.92,-103.35 154.42,-113.35 157.92,-103.35 150.92,-103.35"/>
</g>
</g>
</svg>
